<?xml version="1.0" standalone="no"?>
<!DOCTYPE svg PUBLIC "-//W3C//DTD SVG 20010904//EN"
 "http://www.w3.org/TR/2001/REC-SVG-20010904/DTD/svg10.dtd">
<svg version="1.0" xmlns="http://www.w3.org/2000/svg"
 width="700.000000pt" height="700.000000pt" viewBox="0 0 700.000000 700.000000"
 preserveAspectRatio="xMidYMid meet">
<metadata>
Created by potrace 1.14, written by Peter Selinger 2001-2017
</metadata>
<g transform="translate(0.000000,700.000000) scale(0.100000,-0.100000)"
fill="#000000" stroke="none">
<path d="M490 3700 l0 -1400 171 2 172 3 599 950 c330 523 636 1011 680 1085
44 74 81 136 82 137 0 1 0 -489 -2 -1088 l-2 -1089 172 2 173 3 3 1398 2 1397
-183 0 -183 0 -619 -992 c-341 -546 -642 -1036 -670 -1089 l-50 -96 3 1088 3
1089 -175 0 -176 0 0 -1400z"/>
<path d="M3190 5095 c0 -2 171 -232 379 -511 l379 -506 -48 -101 c-26 -56
-206 -433 -400 -837 -194 -404 -363 -759 -376 -787 l-24 -53 184 0 183 0 349
735 c192 404 352 735 355 735 4 0 111 -139 238 -308 l231 -309 0 -426 0 -427
175 0 175 0 0 428 1 427 234 314 c216 290 235 312 244 290 5 -13 163 -346 350
-739 l341 -715 180 -3 c124 -2 180 1 180 8 0 6 -187 403 -417 883 -229 479
-416 876 -416 881 0 6 166 234 369 506 204 272 374 501 378 508 6 9 -36 12
-196 12 l-203 -1 -520 -706 -520 -705 -3 706 -2 706 -175 0 -175 0 -2 -707 -3
-707 -520 704 -520 705 -203 3 c-111 1 -202 0 -202 -3z"/>
</g>
</svg>
